<?xml version="1.0" encoding="UTF-8"?>
<svg id="Layer_1" data-name="Layer 1" xmlns="http://www.w3.org/2000/svg" version="1.1" viewBox="0 0 355.42 184.17">
  <defs>
    <style>
      .cls-1 {
        fill: #dc150b;
      }

      .cls-1, .cls-2, .cls-3 {
        stroke-width: 0px;
      }

      .cls-2 {
        fill: #000;
      }

      .cls-3 {
        fill: #fff;
      }
    </style>
  </defs>
  <g>
    <g>
      <polygon class="cls-2" points="151.67 73.23 168.02 73.23 168.02 121.29 179.52 121.29 179.52 73.23 195.87 73.23 195.87 62.89 151.67 62.89 151.67 73.23"/>
      <path class="cls-2" d="M207.29,61.64c-1.75,0-3.28.62-4.56,1.85-1.28,1.23-1.94,2.77-1.94,4.57,0,1.7.65,3.19,1.93,4.45,1.28,1.25,2.81,1.89,4.56,1.89s3.19-.64,4.45-1.89,1.89-2.75,1.89-4.45c0-1.8-.62-3.33-1.85-4.56s-2.74-1.85-4.48-1.85Z"/>
      <rect class="cls-2" x="201.71" y="79.4" width="11.17" height="41.89"/>
      <path class="cls-2" d="M243.46,62.89h-20.53v58.4h20.53c8.85,0,15.88-2.64,20.9-7.85,5.01-5.21,7.56-12.39,7.56-21.35s-2.54-16.21-7.56-21.39c-5.02-5.18-12.05-7.81-20.9-7.81ZM234.43,73.23h8.62c5.72,0,10.04,1.66,12.86,4.93,2.83,3.29,4.26,7.86,4.26,13.59s-1.44,10.49-4.27,13.97c-2.82,3.46-7.14,5.22-12.86,5.22h-8.62v-37.72Z"/>
      <path class="cls-2" d="M318.75,95.24c-1.9-2.31-4.16-3.97-6.7-4.93v-.1c5.32-2.58,8.01-6.81,8.01-12.57,0-4.47-1.48-8.09-4.39-10.75-2.91-2.65-7.2-4-12.75-4h-24.08v58.4h23.92c5.88,0,10.56-1.44,13.9-4.28,3.36-2.85,5.06-6.9,5.06-12.04,0-4.07-1-7.34-2.96-9.73ZM290.08,86.58v-14.35h11.34c2.16,0,3.91.64,5.2,1.9,1.28,1.26,1.93,3.02,1.93,5.24s-.64,4-1.9,5.28c-1.26,1.28-3.07,1.93-5.4,1.93h-11.18ZM309.96,104.14c0,2.33-.71,4.23-2.1,5.65-1.39,1.42-3.45,2.14-6.1,2.14h-11.67v-16h11.67c2.54,0,4.57.77,6.02,2.3,1.45,1.53,2.19,3.52,2.19,5.9Z"/>
    </g>
    <g>
      <polygon class="cls-1" points="84.27 33.71 33.71 62.9 33.71 121.27 84.27 150.46 134.82 121.27 134.82 62.9 84.27 33.71"/>
      <polygon class="cls-3" points="67.41 121.27 67.41 82.36 50.56 92.09 50.56 72.63 84.27 53.17 101.12 62.9 84.27 72.63 84.27 131 67.41 121.27"/>
      <polygon class="cls-3" points="101.12 121.27 101.12 82.36 117.97 72.63 117.97 111.54 101.12 121.27"/>
    </g>
  </g>
  <g>
    <path class="cls-2" d="M172.35,133.4c1.12,0,2,.32,2.66.96.66.64.99,1.48.99,2.52s-.34,1.93-1.01,2.57c-.67.64-1.58.96-2.73.96h-2.58v4.37h-1.66v-11.38h4.32ZM172.1,138.89c.69,0,1.23-.18,1.6-.54.37-.36.56-.84.56-1.46s-.19-1.1-.57-1.45c-.38-.35-.88-.53-1.51-.53h-2.5v3.98h2.42Z"/>
    <path class="cls-2" d="M181.35,144.94c-1.19,0-2.18-.4-2.97-1.2-.79-.8-1.18-1.81-1.18-3.02s.39-2.25,1.17-3.04c.78-.79,1.77-1.19,2.97-1.19s2.2.4,2.99,1.19,1.19,1.81,1.19,3.03-.4,2.23-1.19,3.03c-.79.8-1.79,1.19-2.99,1.19ZM179.55,142.69c.47.54,1.07.8,1.8.8s1.34-.27,1.82-.81c.48-.54.72-1.2.72-1.97s-.24-1.44-.71-1.97-1.08-.8-1.83-.8-1.34.27-1.8.8-.7,1.19-.7,1.97.23,1.44.7,1.97Z"/>
    <path class="cls-2" d="M188.45,144.78l-2.11-8.13h1.56l1.48,6.22h.11l1.67-5.66h1.79l1.67,5.67h.11l1.48-6.24h1.54l-2.13,8.13h-1.87l-1.64-5.74h-.13l-1.67,5.74h-1.87Z"/>
    <path class="cls-2" d="M206.25,140.6c0,.08-.01.25-.03.54h-6.01c.04.74.28,1.33.7,1.78.42.45.99.67,1.69.67,1.09,0,1.77-.42,2.03-1.25h1.59c-.17.81-.58,1.45-1.22,1.91-.64.46-1.44.69-2.4.69-1.18,0-2.15-.38-2.89-1.14-.75-.76-1.12-1.76-1.12-3.01s.38-2.34,1.13-3.13c.75-.79,1.69-1.18,2.82-1.18,1.06,0,1.95.35,2.66,1.06.71.7,1.06,1.72,1.06,3.05ZM202.53,137.84c-.63,0-1.15.2-1.56.6s-.66.91-.75,1.53h4.42c-.01-.63-.21-1.14-.6-1.54s-.89-.59-1.51-.59Z"/>
    <path class="cls-2" d="M208.05,144.78v-8.13h1.49l.16,1.14h.11c.25-.43.55-.76.89-.97s.83-.32,1.46-.32h.52v1.66c-.26-.03-.53-.05-.8-.05-.73,0-1.27.24-1.64.73-.37.49-.55,1.1-.55,1.85v4.1h-1.66Z"/>
    <path class="cls-2" d="M221.08,140.6c0,.08-.01.25-.03.54h-6.01c.04.74.28,1.33.7,1.78.42.45.99.67,1.69.67,1.09,0,1.77-.42,2.03-1.25h1.59c-.17.81-.58,1.45-1.22,1.91-.64.46-1.44.69-2.4.69-1.18,0-2.15-.38-2.89-1.14-.75-.76-1.12-1.76-1.12-3.01s.38-2.34,1.13-3.13,1.69-1.18,2.82-1.18c1.06,0,1.95.35,2.66,1.06.71.7,1.06,1.72,1.06,3.05ZM217.36,137.84c-.63,0-1.15.2-1.56.6s-.66.91-.75,1.53h4.42c-.01-.63-.21-1.14-.6-1.54s-.89-.59-1.51-.59Z"/>
    <path class="cls-2" d="M228.79,133.24h1.66v11.54h-1.35l-.15-1.09h-.11c-.62.83-1.47,1.25-2.57,1.25s-2.01-.39-2.71-1.17c-.7-.78-1.06-1.8-1.06-3.07s.36-2.3,1.07-3.06c.72-.76,1.61-1.15,2.7-1.15s1.93.37,2.52,1.11v-4.36ZM226.51,143.49c.69,0,1.25-.25,1.66-.76.41-.51.62-1.19.62-2.03s-.21-1.49-.63-2-.97-.76-1.65-.76-1.27.25-1.71.76-.65,1.18-.65,2,.22,1.51.65,2.02c.43.51,1,.77,1.71.77Z"/>
    <path class="cls-2" d="M241.12,136.49c1.08,0,1.98.38,2.7,1.15.72.76,1.07,1.78,1.07,3.06s-.35,2.29-1.06,3.07-1.61,1.17-2.71,1.17-1.95-.42-2.57-1.25h-.11l-.15,1.09h-1.35v-11.54h1.66v4.36c.58-.74,1.42-1.11,2.52-1.11ZM240.88,143.49c.7,0,1.27-.26,1.71-.77.43-.51.65-1.19.65-2.02s-.22-1.49-.65-2-1-.76-1.71-.76-1.23.25-1.65.76c-.42.51-.63,1.18-.63,2s.21,1.52.62,2.03.96.76,1.66.76Z"/>
    <path class="cls-2" d="M247.39,148.19c-.34,0-.74-.06-1.22-.18v-1.25c.35.08.63.11.86.11.86,0,1.45-.39,1.77-1.17l.36-.93h-.54l-3.14-8.13h1.72l2.4,6.42h.13l2.26-6.42h1.72l-3.38,9.3c-.51,1.5-1.5,2.24-2.96,2.24Z"/>
    <path class="cls-2" d="M264.07,133.4c1.12,0,2,.32,2.66.96.66.64.99,1.48.99,2.52s-.34,1.93-1.01,2.57-1.58.96-2.73.96h-2.58v4.37h-1.66v-11.38h4.32ZM263.82,138.89c.69,0,1.23-.18,1.6-.54.37-.36.56-.84.56-1.46s-.19-1.1-.57-1.45c-.38-.35-.88-.53-1.51-.53h-2.5v3.98h2.42Z"/>
    <path class="cls-2" d="M270.26,135.45c-.29,0-.54-.11-.76-.32-.21-.21-.32-.46-.32-.74s.11-.54.32-.74c.21-.2.46-.3.76-.3s.53.1.73.3c.21.2.31.45.31.74s-.1.53-.31.74c-.21.21-.45.32-.73.32ZM269.43,144.78v-8.13h1.66v8.13h-1.66Z"/>
    <path class="cls-2" d="M273.15,144.78v-8.13h1.49l.16.97h.11c.56-.76,1.35-1.14,2.37-1.14.92,0,1.66.28,2.21.85.55.57.83,1.37.83,2.4v5.04h-1.66v-4.68c0-.72-.17-1.25-.51-1.62-.34-.36-.79-.54-1.34-.54s-1.05.19-1.44.58-.58.96-.58,1.71v4.55h-1.66Z"/>
    <path class="cls-2" d="M289.58,136.77c-.29.35-.74.67-1.35.96.35.44.52.96.52,1.56,0,.85-.3,1.52-.91,2.02s-1.37.75-2.29.75c-.54,0-1.02-.08-1.45-.24-.31.16-.47.38-.47.67,0,.47.38.7,1.14.7h1.61c.92,0,1.63.21,2.13.62.5.41.75.98.75,1.71,0,.85-.33,1.51-.99,1.98-.66.48-1.54.72-2.65.72-1.17,0-2.07-.26-2.71-.78-.63-.52-.99-1.18-1.06-1.98l1.3-1.12c-.67-.28-1.01-.78-1.01-1.5,0-.65.35-1.16,1.06-1.54-.58-.5-.88-1.16-.88-1.98s.29-1.48.87-2.01c.58-.53,1.35-.79,2.3-.79.72,0,1.34.16,1.87.47.52-.27.97-.65,1.35-1.14l.88.94ZM287.66,145.57c0-.38-.15-.66-.44-.83-.29-.17-.64-.26-1.04-.26h-1.48l-1.25,1.06c.26.92.98,1.38,2.16,1.38.58,0,1.07-.11,1.46-.34.39-.23.58-.56.58-1.01ZM285.55,140.8c.49,0,.88-.14,1.17-.42s.44-.64.44-1.09-.15-.84-.44-1.13-.68-.43-1.17-.43-.9.14-1.2.43c-.3.29-.45.66-.45,1.13,0,.43.15.79.45,1.08.3.29.7.43,1.2.43Z"/>
    <path class="cls-2" d="M301.23,141.25c-.21,1.13-.77,2.02-1.69,2.69-.92.67-2.03,1-3.33,1-1.66,0-2.99-.54-3.98-1.63-1-1.08-1.5-2.48-1.5-4.18s.51-3.12,1.52-4.23c1.01-1.11,2.33-1.67,3.96-1.67,1.27,0,2.34.33,3.23,1,.88.67,1.42,1.59,1.62,2.77h-1.84c-.19-.67-.55-1.21-1.07-1.6-.52-.4-1.16-.59-1.92-.59-1.12,0-2.02.41-2.71,1.24-.69.83-1.04,1.86-1.04,3.08s.35,2.25,1.05,3.04c.7.79,1.6,1.19,2.69,1.19.79,0,1.47-.19,2.03-.58.56-.38.95-.9,1.15-1.54h1.84Z"/>
    <path class="cls-2" d="M310.24,144.78l-1.01-2.97h-4.42l-1.01,2.97h-1.84l4.01-11.38h2.1l4,11.38h-1.84ZM305.28,140.36h3.48l-1.67-4.96h-.13l-1.67,4.96Z"/>
    <path class="cls-2" d="M318.05,133.4c1.12,0,2,.32,2.66.96.66.64.99,1.48.99,2.52s-.34,1.93-1.01,2.57-1.58.96-2.73.96h-2.58v4.37h-1.66v-11.38h4.32ZM317.81,138.89c.69,0,1.23-.18,1.6-.54.37-.36.56-.84.56-1.46s-.19-1.1-.57-1.45c-.38-.35-.88-.53-1.51-.53h-2.5v3.98h2.42Z"/>
  </g>
</svg>